<?xml version="1.0" encoding="UTF-8"?>
<svg id="_레이어_1" data-name="레이어_1" xmlns="http://www.w3.org/2000/svg" version="1.1" xmlns:xlink="http://www.w3.org/1999/xlink" viewBox="0 0 232.51 214.47">
  <!-- Generator: Adobe Illustrator 30.4.0, SVG Export Plug-In . SVG Version: 2.1.4 Build 226)  -->
  <defs>
    <style>
      .st0 {
        fill: #181818;
      }

      .st1 {
        fill: #111;
      }

      .st2 {
        fill: #8b8b8b;
      }

      .st3 {
        fill: #141414;
      }

      .st4 {
        fill: url(#_무제_그라디언트_26);
      }

      .st5 {
        fill: #b8b8b8;
      }

      .st6 {
        fill: #d7d7d7;
      }

      .st7 {
        fill: #121212;
      }

      .st8 {
        fill: #c9c9c9;
      }

      .st9 {
        fill: #1e1e1e;
      }

      .st10 {
        fill: #383838;
      }

      .st11 {
        fill: #131313;
      }

      .st12 {
        fill: #435075;
      }

      .st13 {
        fill: #b2b2b2;
      }

      .st14 {
        fill: #8e8e8e;
      }

      .st15 {
        fill: #1f1f1f;
      }

      .st16 {
        fill: #b0b0b0;
      }

      .st17 {
        fill: #c4c4c4;
      }

      .st18 {
        fill: #c8c8c8;
      }

      .st19 {
        fill: #684863;
      }

      .st20 {
        fill: #2b2b2b;
      }

      .st21 {
        fill: #1a1a1a;
      }

      .st22 {
        fill: #999;
      }

      .st23 {
        fill: #d0d0d0;
      }

      .st24 {
        fill: #d6d6d6;
      }

      .st25 {
        fill: gray;
      }

      .st26 {
        fill: #7f7f7f;
      }

      .st27 {
        fill: #e4e4e4;
      }

      .st28 {
        fill: #151515;
      }

      .st29 {
        fill: #ab555b;
      }

      .st30 {
        fill: #475684;
      }

      .st31 {
        fill: #d1d1d1;
      }

      .st32 {
        fill: #101010;
      }

      .st33 {
        fill: #bebebe;
      }

      .st34 {
        fill: #be4c53;
      }

      .st35 {
        fill: #744f6d;
      }

      .st36 {
        fill: #a2a2a2;
      }
    </style>
    <linearGradient id="_무제_그라디언트_26" data-name="무제 그라디언트 26" x1="-1127.46" y1="-368.09" x2="-933.51" y2="-363.5" gradientTransform="translate(1146.0262 471.7009)" gradientUnits="userSpaceOnUse">
      <stop offset="0" stop-color="#cdcdcd"/>
      <stop offset=".2" stop-color="#eaeaea"/>
      <stop offset=".48" stop-color="#f8f8f8"/>
      <stop offset=".7" stop-color="#f7f6f6"/>
      <stop offset=".87" stop-color="#d7d7d7"/>
      <stop offset="1" stop-color="#d3d3d3"/>
    </linearGradient>
  </defs>
  <path class="st22" d="M27.47,173.42l.78-1.27c10.24,2.64,21.1,5.09,31.68,3.78l1.08,1.15c1.74-2.02,2.49-1.84,3.49.63l1.95-2.07c3.08.43,6.5.53,10.25.32l.7,1.31c.84,3.16-1.79,3.74-7.88,1.76-.09.67-.24,1.25-.62,1.54-1.25.98-12.92,1.43-14.42-.24-7.06-.45-14.05-1.4-20.99-2.87-.4.75-.93,1.4-1.71,1.78-.82.4-15.66-4.68-17.09-6.17l-2.25,2.64c-1.49-1.03-1.07-2.49-1.07-4.47l.2-114.74.31-9.71c5.43-1.55,6.06,3.52,4.59,7.84-.15,37.65,0,75.25.46,112.82l1.38,2.15c2.84,1.69,5.9,2.97,9.17,3.83Z"/>
  <path class="st31" d="M186.53,33.31l-.81,2.02c-5.79-.56-11.19-.22-16.2,1.02,1.67,2.02-1.01,4.12-3.02,4.02-23.89,2.54-47.87,6.55-71.93,12.02-8.11,2.64-16.23,3.96-24.37,3.95-1.04,1.84-2.43,1.86-3.69.03-2.79.68-3.01-.24-.97-2.15l-2.37-1.58c-8.49.48-17.11.43-25.87-.15-2.91,0-4.55-1.02-4.92-3.07,19.4,1.47,40.28.85,60.11-3.11l30.96-6.18c12.4-2.48,24.24-4.96,36.92-6.09,8.96-.8,18.96-3.48,26.16-.74Z"/>
  <path class="st14" d="M172.56,160.85c12.24-.48,25.88-.97,37.51,4.07l5.49-.23c2.53-2.69,4.16-2.82,4.88-.39.87.99.75,4.43-.07,5.86-1.56,1.87-2.86,1.41-3.91-1.39l-3.01-1.14-.81,1.3c-7.62-1.23-15.31-2.47-23.07-3.71l.88,1.73c-23.61-.67-46.76,1.89-70.42,7.08-16.55,3.62-32.27,7.32-48.77,8.35-.81-1.03-.12-2.05.98-1.89s-2.97,2.12-2.73-1.47c4.88-1.4,6.83.1,7.88-1.76,5.54-1.21,11.14-2,16.79-2.37-.53-.68-.29-.81.62-.48-.13-.95.13-.98.74-.16l1.9-1.46c22.01-4.3,44.11-8.11,66.31-11.42,2.18-2.43,5.64-.03,5.58.95-.01.27-4.78-1.41-1.85-3.03,1.55-2.24,4.7-1.17,5.09,1.55Z"/>
  <path class="st16" d="M220.5,42.17l-.05,1.12c.86,39.7.87,81.39-.02,121-1.23-.23-2.6.3-3.75,1.02-4.62,2.91-14.47-2.53-18.08-2.76l-15.37-.99c-3.18-.2-8.17,1.73-10.67-.72-4.25-1.48.58-6.19,2.01-1.47,11.12-1.74,22.13-.77,33.05,2.9.03-.86.29-.85.74-.07,2.69,1.99,6.79,1.95,7.71-1.75.6-38.04.73-76.11.37-114.21-2.51-5.47-.12-9.06,4.06-4.07Z"/>
  <path class="st17" d="M186.53,33.31c10.87-.25,32.45,4.69,33.74,6.74.35.55.26,1.41.23,2.12-.95-.58-2.38-.99-3.19-.48-1.67,1.07.13,2.69.13,3.85l-.07,114.52c0,2.26-2.26,3.95-3.59,4.29-1.91.48-4.67-.16-5.42-2.14,1.24-1.66,3.39-2.26,6.46-1.78.26-28.39.47-56.76.63-85.08-2.93-.01-2.8-3.38,0-4.04-.88-8.18-.84-16.82-.01-25-1.6-1.33-3.36-2.45-5.28-3.34-11.5-1.58-23.05-2.9-34.62-3.95l-1.81-.97c-1.95,1.15-4.07.96-4.21-1.7.09-.57-.16-2.65.98-2.67l16.03-.37Z"/>
  <path class="st13" d="M21.57,47.24c3.9,1.05,3.12,2.94-2.32,5.67l-1.16,4.45c.19,15.12-.02,30.1-.62,44.94.83,7.44.77,16.22.02,24,3.02.38,2.83,6.44-.07,7.02.72,11.17,1.01,22.44.86,33.81,3.23.75,5.93,2.06,8.09,3.93,2.05.15,2.9.96,1.09,2.36-3.77.01-9.49-1.34-11.91-5.59l-.15-117.35c-.37-1.47-1.54-2.57-3.16-3.29,1.62,3.64-.69,6.9-.69,9.3-.5-4.14-.61-8.25.38-12.67l9.63,3.42Z"/>
  <path class="st17" d="M32.37,49.43c3.32.68,7.1,1.76,11.02,1.8l20,.21c1.47.02,1.79,2.01,2.14,2.78-1.31,1.51-3.7,2.52-5.56,1.4-1.58,1.41-2.29,1.04-2.13-1.12-7.45.66-14.89.64-22.34-.08.01.85-.31,1.48-1.03,1.82-4.67-1.7-8.91-2.09-12.73-1.17l-.82,1.45-.45,44.6-2,1.17c-.28.87-.61.86-.99,0l.03-47.96c0-4.83,7.09-3.73,4.07-7.1l10.8,2.2Z"/>
  <path class="st26" d="M33.48,177.46c6.89,1.51,13.89,2.47,20.99,2.87,5-.08,10.16.09,15.04-1.31,1.41.72,3,.74,4.24,1.88-1.36.95-2.02,1.08-2.48,1.47l-.74-.07c-10.99.63-22.04.74-33.18.34-8.63-1.48-17.47-2.69-24.91-6.95.28-2.86-.72-4.76.93-8.24,2.01,5.88,6.46,5.86,10.72,7.35,3.56,1.24,5.81,2.23,9.4,2.65Z"/>
  <path class="st25" d="M213.45,167.63c2.45.51,6.03,2.13,4.22,4.62l-7.47-1.77-19.75-3.53-28.01-.91v-1.44s9-.37,9-.37c18.89-3.63,38.91,3.68,42.01,3.4Z"/>
  <path class="st17" d="M220.43,173.35c-2.9-.38-2.77-2.32-.07-3.2l.07-5.86.02-121c.26,0,.99.31.99,1.21v127.63c0,.88-.63,1.22-1.01,1.22Z"/>
  <path class="st14" d="M70.52,182.31c-.1.52-.95,1.2-2.02,1.17l-31.16-.83,33.18-.34Z"/>
  <path class="st2" d="M220.37,170.15l.07,3.2c-3.54-.17-7.06-1.31-10.24-2.87,1.79.32,3.84-.12,6.55.85-.15-2.82-2.17-2.47-3.3-3.7,4.34-.4,4.51,2.03,6.92,2.53Z"/>
  <path class="st5" d="M67.47,172.3c4.5,1.8,9.53,2.21,15.07,1.23l.59,1.48.29,1.28-6.02.97-12.89.44c.75-2.4,2.09-4.31,1.63-6.57,1.68-1.23,2.34-.67,1.35,1.17Z"/>
  <path class="st14" d="M54.47,180.33c-6.88.11-16.2-.22-20.99-2.87l15.97,1.84c1.93.22,4.07-.4,5.03,1.03Z"/>
  <path class="st5" d="M167.47,159.3l1.89,3.04c-3.92-.82-6.9.81-10.59,1.3l-19.55,2.57-16.92,2.96-26.77,5.09c-2.56-.62-2.93-1.82-.56-2.81,6.28-.88,12.47-1.9,18.58-3.06,0-.63,0-1.13.11-1.15,12.8-2.32,25.69-4.32,38.62-5.88,1.9-1.16,3-1.1,3.28.18,1.17-1.56,3.21-2.11,6.12-1.65l3.02-.64,2.8-3.14c2.53.96,2.28,2.12-.03,3.19Z"/>
  <path class="st36" d="M94.17,174.9c-5.51,1.94-11.02,3.35-16.79,2.37,1.11-1.98,4.23-1.2,5.74-2.26l.53-.37c2.73-1.37,7.89-1.52,10.53.25Z"/>
  <g>
    <path class="st10" d="M173.73,38.05l-.17,2.12c-1.35,1.15-2.85,2.21-4.5,3.17-.55-.92-2.03-1.75-2.56-2.97.59-1.62,2.24-2.78,3.02-4.02,1.57-.12,2.73.99,4.21,1.7Z"/>
    <path class="st20" d="M65.53,54.23l.97,2.15c.56,1.25-.97,1.57-1.26,2.21-1.41.77-2.98,1.39-4.7,1.85l-1.85-1.99c.41-.81.71-2.24,1.27-2.82,1.49-1.55,3.66-2.48,5.56-1.4Z"/>
    <g>
      <path class="st4" d="M215.44,46.31c-.95,8.11-.73,16.85.01,25v4.04c-.19,28.24-.39,56.6-.63,85.08-.07,2.78-4.91,2.23-6.46,1.78-.32.1-.56.07-.74.07l-5.17-1.97c-8.77-1.13-17.48-1.83-26.1-2.1l-.39-1.15,5.42-9.51-.91-1.25c-.71,1.63-2.11,1.56-4.21-.22l-6.31,9.92-2.44.11c-.49,3.46-1.43,4.51-2.8,3.14-2.42.78-7.29,1.87-7.98-.91l-2.24,2.31c-15.51,2.41-30.85,4.92-46.03,7.53l-.29,1.09c-4.91.47-9.38,1.53-13.43,3.2-8.73.57-17.55,1.07-26.45,1.48-.66-.28-.89-.86-.83-1.64-.25-.47-.92-.87-1.35-1.17l-18.27-28.42c-1.57-.29-3.5,1.31-4.73,2.9l16.47,27.48c-.07.6.15,1.29-.32,2.34-2.84-.92-5.72-.47-8.45-.79l-15.19-1.81c-3.03-.36-6.16-2.72-9.26-1.77-2.26.69-8.01-.51-8.09-3.93.15-11.38-.14-22.64-.86-33.81l.07-7.02c.32-8.04.65-16.04.98-24l.15-43.99c0-2.06.88-3.79,1.74-4.65,1.6-1.6,3.61-1.68,5.88-1.19l9.27,1.97c7.41.72,14.92.74,22.34.08.8,0,1.5.26,2.13,1.12,1.68,1.66.83,2.34-1.27,2.82.17.78.3,1.56.29,2.35s-.02,1.49-.33,2.03c-4.2,7.25-8.67,14.31-13.19,21.35l1.6,1.23c5.39-7.97,10.42-16.32,15.11-25.06l3.07-1.75c.29-.99.71-1.72,1.26-2.21.96.35,2.34-1.47,3.25-1.89,9.02,1.03,19.4-3.59,27.92-4.63,4.94-.6,9.31-2.08,14.04-2.9,5.44-.94,10.49-2.03,15.82-3.07l15.23-2.99,19.13-1.69c1.82-.16,3.88-.52,4.61,1.17,2.18-1.31,3.04-.32,2.56,2.97l2.27-.1c.23,1.56,6.88,11.2,6.4,6.38l-4.58-6.93.42-2.53c-2.85-.53-2.46-1.49.17-2.12.02-.43.06-.92.11-1.41.04-.43,1.26.43,1.85.4,8.59-.38,16.32,1.89,24.75,3.03,6.56.88,14.99-.55,15,6.24Z"/>
      <g>
        <path class="st33" d="M59.6,173.09c.65,1.09,1.19,2.27,1.4,3.99-5.65,1.22-13.1.69-19.39-.22-4.99-.72-9.28-3.46-14.15-3.44l-1.09-2.36c-.04-1.55.65-2.48,2.15-2.19,9.62,2.51,19.41,3.9,29.37,4.19-.28,1.06.29,1.07,1.71.04Z"/>
        <path class="st8" d="M108.46,168.17c2.54-1.08,4.24-1,5.1.21-.76,1.96-2.81,1.66-5.1,1.95l-9.96,1.26c-1.06.13-2.03.1-2.64.65-.4.36-.56,1.27-.32,2.02-.2.04-.56-.01-.74.16-4.14-1.16-7.86-1.08-11.14.23.5.73.3.83-.53.37-4.92-1.02-10.25-1.33-15.43.35-.54-1.45-.34-2.24-.23-3.06,4.09,1.16,9.84,1.91,14.15.21,2.85-1.13,4.84-.95,7.92-1.32l12.52-1.49c2.32-.28,4.26-1.62,6.41-1.53Z"/>
        <path class="st5" d="M94.79,174.41c-.19.18-.4.41-.62.48-3.38-.9-7.09-.9-10.53-.25-.43-1.27.74-1.45,1.36-1.37,3.73.44,7.69-.97,9.78,1.15Z"/>
        <path class="st17" d="M176.35,158.21l21.12.12c4.08.02,7.67,1.31,10.15,3.95-4.71.06-9.16-2.56-14.27-2.64l-18.78-.27-.29-1.28c1.19-1.36,1.89-1.87,2.07.12Z"/>
        <path class="st31" d="M214.82,160.44l-.38-84c0-.79.63-1.17,1.01-1.08l.34,15.76c1.38,5.4-.23,9.96-.01,15.08.18,4.41.19,7.86.09,12.24l-1.04,42.01Z"/>
        <path class="st23" d="M215.45,71.31c-.68-.11-1.06-.86-1.06-1.94v-21.13c0-1.06.44-1.73,1.05-1.93v25Z"/>
        <path class="st33" d="M18.28,167.13l-.86-33.81c.44-.08,1.04.34,1.04,1.04l-.18,32.77Z"/>
        <path class="st18" d="M17.49,126.31l-.02-24h.99s-.02,22.95-.02,22.95c0,.69-.58,1.1-.96,1.05Z"/>
        <path class="st23" d="M57.84,54.51c-6.72,1.36-15.92,1.29-22.34-.08l22.34.08Z"/>
        <path class="st6" d="M156.73,158.33c2.68,1.75,1.48,2.39-1.16,3.2l-9.69,1.31-32.32,5.54-5.1-.21c3.81-2.54,8.87-2.53,13.74-3.35,10.11-1.7,19.73-3.4,29.95-4.04,1.24-.37,2.72-2.65,4.59-2.45Z"/>
        <g>
          <g>
            <g>
              <path class="st32" d="M66.12,171.13c1.71,4,1.17,6.19-1.63,6.57-1.17.04-2.49-.21-3.49-.63-1.73.14-2.2-1.19-1.4-3.99-.72.33-1.87.71-2.18.26-2.18-3.19-16.21-26.29-16.03-27.89.3-2.79,4.45-5.29,7.23-4.39,1.59.52,16.46,24.31,18.39,27.76l-.9,2.3Z"/>
              <path class="st28" d="M81.37,160.07c1.37,2.08-3.54,5.61-4.54,4.11l-18.12-27.23c-.91-1.37.23-2.55.6-3.23.46-.86,3.11-2.41,3.85-1.29l18.21,27.63Z"/>
              <path class="st21" d="M69.41,170.91l-7.88-12.92c-.34-1.41,3.1-3.73,4.68-3.7l8.67,12.69c-1.77,1.76-2.55,2.6-5.47,3.92Z"/>
              <path class="st28" d="M58.8,154.38l-7.84-12.73c-.87-1.42,2.65-4.82,4.2-4.11,3.13,3.87,6.08,8.36,8.3,13.09.56,1.19-2.61,3.56-4.65,3.76Z"/>
            </g>
            <g>
              <path class="st28" d="M64.94,95.25c-.99,1.75-1.64,3.1-2.98,3.16-1.14.06-3.5-1.7-3.72-3.49l17.33-30.46c1.15-2.02,2.15-2.55,3.95-1.81,2.35.97,2.41,2.51,1.1,4.82l-15.68,27.77Z"/>
              <path class="st11" d="M55.53,93.12c-2.26.3-4.45-1.88-4.82-3.74,6.45-10.51,13.04-20.94,18.88-32,2.15.27,3.61,1.35,5.06,3.09l-19.13,32.65Z"/>
              <path class="st1" d="M65.24,58.59c-3.86,8.35-10,17.19-14.69,25.63-1.34,2.41-2.22,3.51-4.26,3.05-1.1-.24-3.56-2.5-2.73-3.84,5.27-8.52,10.8-16.36,15.14-24.98,2.25.15,4.51-.18,6.52-2.15.4,1.09.11,1.65.02,2.29Z"/>
            </g>
          </g>
          <g>
            <path class="st32" d="M178.23,76.2c-6.09-10.53-12.03-19.63-18.56-29.37-.89-1.33,2.89-5.01,4.52-4.37,6.68,9.67,13.19,19.82,19.13,29.82-.38,1.86-2.63,4.1-5.09,3.92Z"/>
            <path class="st1" d="M191.05,67.85c-1.55,1.88-2.85,2.55-4.99,3.65-2.44-4.99-5.71-9.43-8.59-14.48-.17-1.55,3.04-3.66,4.83-3.69l8.76,14.51Z"/>
            <path class="st21" d="M170.97,81.5l-8.69-13.34,5.02-3.95,8.12,12.46c1.22,1.87-1.58,5.04-4.45,4.83Z"/>
            <path class="st9" d="M160.41,65.2l-8.19-12.89c-.88-1.39,3.44-4.5,4.39-3.44,3.1,3.68,6.61,7.89,7.99,12.46.37,1.58-2.82,3.63-4.19,3.87Z"/>
            <path class="st7" d="M173.56,40.17c2.75,2.83,4.47,6.4,6.83,9.87-1.67,1.61-2.84,2.49-5.22,3.51l-6.11-10.21c-.36-1.19.07-2.93,1.51-3.4.83-.28,1.91-.29,3,.23Z"/>
          </g>
          <g>
            <path class="st34" d="M147.92,81.87c1.24,3.24,5.23,17.52,2.81,19.42-.52.41-1.09.69-1.67.7-1.69-2.39-3.69-4.26-5.99-5.6-7.61-.83-11.42-1.24-11.42-1.24-8.1,2.94-14.56,8.75-19.38,17.42-4.99,5.25-12.74,8.69-18.8,4.31-7.2-.06-10.56-13.35-9.63-17.11l-.54-1.72c4.9-12.66,14.78-23.68,27.88-28.83,14.44-5.68,29.82-.26,36.74,12.64Z"/>
            <path class="st30" d="M148.72,118.54c-1.12,3.03-2.86,5.28-4.81,8.31-8.14,12.64-22.08,20.33-37.4,19.44-1.88-.11-3.45-.71-4.48-1.88.24-.67.49-1.2.79-1.23,3.23-.28,11.7,1.18,3.63.5-7.19-.61-21.82-6.65-16.04-15.18-12.55-9.19,2.2-9.35,10.12-8.97,5.59-1.96,8.57-3.52,12.84-8.26,11.42-23.47,40.42-21.31,35.36,7.29Z"/>
            <path class="st12" d="M93.28,118.49c1.97-.59,5.44,0,7.25,1.02l-13.08,2.62c.06,2.99,2.62,3.75,4.17,4.88,2.11,1.55-.76,4.01-1.3,5.39,1.56,5.13,8.42,8.34,13.4,9.65l6.81,1.78c-2.67.55-5.65,1.06-8.51.57-7.66-1.32-15.28-8.36-18.07-16.03-2.77-7.62-2.89-14.72-2.53-21.94,1.35-4.28,2.85-3.05,4.51,3.68,1.6,3.45,4.05,6.24,7.35,8.39Z"/>
            <path class="st35" d="M143.07,96.39c4.73,2.41,7.37,5.77,7.93,10.1l-.07,5.3c-.69,2.24-1.39,4.57-2.2,6.74l-.29-9.39c-.04-4.62-3.34-9.96-7.93-11.92-8.88-3.8-17.95,1.47-22.76,9.32-5.85,9.54-8.34,11.19-17.22,12.97-2.56.11-4.88-.32-7.25-1.02-1.59-.87-1.67-1.54.19-1.61,4.06,1.59,9.95,1.7,13.61-.9,10.12-7.18,16.73-29.48,35.99-19.59Z"/>
            <path class="st29" d="M150.92,111.79c-.71-5.79-3.75-11.32-7.85-15.4,2.4-.13,4.03,1.84,5.8,4.13,2.99-2.82,1.02-6.47.4-9.71-.57-2.99-.27-5.92-1.35-8.94,4.89,9.12,6.09,19.9,3,29.92Z"/>
            <path class="st19" d="M93.47,116.88l-.19,1.61c-10.67-3.16-7.76-16.1-11.86-12.07.15-3.09.81-5.61,1.87-8.36.78,0,1.47-.08,1.67.2.64.91-1.3,14.79,8.49,18.62Z"/>
          </g>
          <g>
            <path class="st7" d="M180.47,146.3c.55.35.98.69.97,1.02-.06,1.77-5.02,9.93-7.16,10.78,1.76.22,1.88.49.29,1.28-.39,0-1.34-.55-1.73-.54s-.31,1.63-.28,2.01c-1.48-.3-3.76-.63-5.09-1.55-.51-.82-.03-2.2.03-3.19l8.16-12.81,4.81,3Z"/>
            <path class="st0" d="M167.23,132.99c-1.33.54-3.96-1.38-4.85-2.64,3.29-4.94,5.41-9.86,8.02-15.18,2.44.58,4.01,1.88,5.95,3.53l-9.12,14.29Z"/>
            <path class="st28" d="M175.02,137.8c-.88,1.44-5.6-1.69-4.71-3.23l8.29-14.3c1.98.22,4.36,2.36,4.7,4.03l-8.28,13.5Z"/>
            <path class="st3" d="M182.51,143.33c-1.55.39-4.22-1.75-5.12-3.04l8.8-14.28c2.22,1.32,3.3,2.5,4.83,4.52l-8.52,12.8Z"/>
            <path class="st15" d="M156.45,152.14c-1.94-.54-4.81-2.61-4.24-3.64l7.99-14.41c2.36.43,3.62,1.11,5.26,2.58l-9.01,15.48Z"/>
            <path class="st0" d="M164.62,155.63c-.99,1.82-5.88-.52-4.93-2.32l7.98-15.02c1.94.23,4.68,2.01,4.91,3.79-2.77,4.45-5.49,8.99-7.96,13.54Z"/>
            <path class="st27" d="M176.35,158.21l-2.07-.12,6.19-11.8c5.01-3.18,2.19,4.17-4.12,11.92Z"/>
          </g>
        </g>
        <path class="st24" d="M164.71,159.25c-2.32,2.6-6.02,1.86-9.14,2.29l1.16-3.2,7.98.91Z"/>
      </g>
    </g>
  </g>
</svg>